<?xml version="1.0" encoding="utf-8"?>
<!-- Generator: Adobe Illustrator 25.4.1, SVG Export Plug-In . SVG Version: 6.00 Build 0)  -->
<svg version="1.1" id="Capa_1" xmlns="http://www.w3.org/2000/svg" xmlns:xlink="http://www.w3.org/1999/xlink" x="0px" y="0px"
	 viewBox="0 0 1383.4 131.1" style="enable-background:new 0 0 1383.4 131.1;" xml:space="preserve">
<style type="text/css">
	.st0{fill:url(#SVGID_1_);}
	.st1{fill:#FFFFFF;}
</style>
<linearGradient id="SVGID_1_" gradientUnits="userSpaceOnUse" x1="699.425" y1="488.4214" x2="699.425" y2="587.9957" gradientTransform="matrix(-1 0 0 1 1391.14 -456.85)">
	<stop  offset="0" style="stop-color:#FFFFFF"/>
	<stop  offset="1" style="stop-color:#F7D4D1;stop-opacity:0.4"/>
</linearGradient>
<rect y="31.6" class="st0" width="1383.4" height="99.6"/>
<path class="st1" d="M620.9,69c0,0.1-0.4,0.8-0.7,1.5c-0.1,0.4-0.3,0.7-0.4,1.1c-0.1,0.3-0.2,0.6-0.3,1.1c-0.2,0.7-0.4,1.5-0.5,2.3
	c-0.1,0.6-0.1,0.9-0.2,1.1c-0.1,0.4-0.1,0.8-0.2,1.2c0,0.8,0,1.6,0.1,2.3c0,0.8,0,1.6,0.1,2.3c0,0.4,0.1,0.8,0.2,1.2
	c0.1,0.3,0.1,0.6,0.2,1.1c0.1,0.8,0.2,1.6,0.4,2.3c0.2,0.5,0.4,1,0.6,1.4c0.2,0.2,0.6,0.2,0.8,0c0.4-0.4,0.6-1,0.4-1.5
	c-0.1-0.4-0.1-0.8-0.2-1.1c-0.2-0.5-0.4-0.9-0.5-1.4c-0.1-0.5-0.2-0.8-0.3-1.1c-0.1-0.4-0.2-0.7-0.2-1.1c-0.2-1.1,0.2-1.1,0-2.2
	s-0.2-1.1-0.2-2.2c0-0.4,0-0.7,0.1-1.1c0.1-0.4,0.1-0.7,0.2-1.1c0-0.7,0-1.5,0.1-2.2c0.1-0.6,0.2-0.8,0.3-1.1s0.2-0.6,0.3-1.1
	c0.3-1.1,0.3-1.1,0.6-2.2c0.3-0.9,0.3-1.1,0.6-1.8c0.1-0.2,0.1-0.4,0.3-0.6s0-0.1-0.2,0.3C621.8,67.2,621.3,68.1,620.9,69z"/>
<path class="st1" d="M840.5,51.5c-1.1-0.8-2.3-1.3-3.7-1.5c-2.3-0.4-4.6-0.1-8.9,0.1h-17.4l-17.5,0.1c-8.7,0-8.7-0.2-17.5-0.2h-17.5
	h-17.5h-17.5l-12.4,0.1c-6.2,0.1-12.9-0.1-19.1,0.1c-6.2-0.3-12.9-0.1-19.1-0.1l-12.4-0.1h-17.5h-17.5h-17.5
	c-8.7,0-8.7,0.2-17.5,0.2L572.9,50h-17.4c-4.3-0.2-6.6-0.4-8.9-0.1c-1.3,0.2-2.6,0.7-3.7,1.5c-1.7,1.2-2.6,3.3-2.5,5.4
	c0.1,1.7,1,3.2,2.5,4c1.1,0.6,2.3,0.8,3.5,0.4c1.1-0.3,1.9-1,2.4-2c0.6-1.2,0.2-2.7-0.9-3.4c-0.3-0.2-0.7-0.3-1-0.3
	c-0.3,0-0.6,0.1-0.9,0.2c-0.4,0.2-0.7,0.5-0.8,0.9c-0.1,0.2-0.1,0.4,0,0.6c0.1,0.1,0.2,0,0.3-0.2c0.3-0.4,0.9-0.6,1.4-0.5
	c0.6,0.2,1,0.9,0.8,1.6c-0.3,0.7-0.9,1.3-1.7,1.4c-0.7,0.1-1.5,0-2.2-0.4c-1.1-0.7-1.6-1.9-1.4-3.2c0.1-1.3,0.8-2.5,1.9-3.2
	c1.3-0.9,2.8-1.4,4.4-1.5c2.3-0.1,4.6-0.1,6.9,0.1h17.5c8.7,0,8.7,0.3,17.5,0.3s8.7-0.2,17.5-0.2s8.7,0.3,17.5,0.3
	c3.8,0,6,0,7.9-0.1c-0.9,0.2-1.8,0.4-2.7,0.7c-2.3,0.7-4.5,1.6-6.6,2.7c-2.1,1.1-4.1,2.4-6,3.9c-2.8,2.2-4,3.4-5.3,4.5l-3.5,3.3
	c-0.2,0-0.5,0-0.7,0c-0.7,0-1.3-0.2-1.9-0.5c-0.6-0.3-1.2-0.6-1.7-1.1c-0.5-0.4-0.9-0.9-1.3-1.5c-0.3-0.5-0.6-1.1-0.8-1.7
	c-0.2-0.6-0.3-1.3-0.2-1.9c0-0.7,0.2-1.3,0.5-1.9c0.2-0.6,0.6-1.1,1-1.6c0.4-0.5,0.9-0.9,1.5-1.1c0.5-0.3,1.1-0.4,1.7-0.3
	c0.5,0.1,1,0.4,1.3,0.8c0.2,0.3,0.3,0.7,0.3,1.1c-0.1,0.3-0.3,0.6-0.5,0.8c-0.2,0.1-0.3,0.2-0.5,0.3c-0.2,0.2-0.5,0.3-0.5,0.7
	s0.5,0.8,1.1,0.7c0.6-0.1,1.2-0.4,1.6-0.8c0.4-0.4,0.6-0.9,0.7-1.4c0.1-0.5,0-1.1-0.2-1.6c-0.2-0.5-0.6-1-1.1-1.3
	c-0.6-0.4-1.3-0.7-2-0.8c-0.9-0.1-1.8,0.1-2.5,0.5c-0.7,0.4-1.4,0.9-1.9,1.5c-0.5,0.6-1,1.3-1.3,2c-0.4,0.7-0.6,1.5-0.6,2.4
	c0,0.8,0.1,1.6,0.3,2.4c0.3,0.8,0.6,1.5,1.1,2.1c0.5,0.7,1,1.3,1.6,1.8c0.6,0.6,1.3,1,2.1,1.2c0.6,0.2,1.2,0.3,1.9,0.4l-0.2,0.2
	c-1.6,1.5-3.3,2.9-5.1,4.2c-1.7,1.3-3.5,2.4-5.4,3.4c-1.8,1-3.7,1.8-5.7,2.5c-1.9,0.7-4,0.9-6.1,0.7c-1.2-0.1-2.4-0.4-3.5-0.9
	c-0.7-0.3-1.5-0.7-2.1-1.2c-1.7-1.1-3-2.6-4-4.4c-1-1.7-1.4-3.7-1.1-5.7c0.1-0.8,0.4-1.5,0.7-2.2c0.5-1.1,1.3-2,2.2-2.7
	c0.9-0.8,2-1.3,3.1-1.6c1.5-0.3,3-0.1,4.3,0.7c0.9,0.5,1.5,1.3,1.9,2.2c0.2,0.5,0.2,1.2-0.1,1.7c-0.2,0.2-0.4,0.3-0.7,0.3
	c-0.2,0.1-0.5,0-0.7-0.1l-0.1-0.1l-0.1-0.1c0,0,0-0.1,0-0.1v0.1c0,0.1,0,0.2,0,0.4c0,0.1,0,0.2-0.1,0.3c0,0,0,0.1-0.1,0.1l-0.1,0.1
	l-0.4,0.3c-0.3,0.2-0.6,0.5-0.9,0.9c-0.6,0.7-0.5,1.6,0.1,2.2c0.8,0.7,1.8,1,2.8,0.8c1.1-0.2,2.1-0.8,2.9-1.6
	c0.8-0.8,1.2-1.8,1.4-2.9c0.2-1.6-0.2-3.2-1.1-4.5c-0.8-1.2-1.9-2.2-3.2-2.9c-1.5-0.6-3.1-0.9-4.7-0.6c-2,0.3-4,1.2-5.5,2.5
	c-1.2,0.9-2.1,2.1-2.8,3.4c-0.5,0.9-0.8,1.9-1,2.9c-0.2,1-0.2,2.1-0.1,3.1c0.2,1.5,0.6,2.9,1.2,4.3c0.7,1.3,1.5,2.6,2.4,3.7
	c0.7,0.8,1.4,1.5,2.2,2.2c0.8,0.7,1.7,1.3,2.6,1.8c1.4,0.7,2.8,1.2,4.4,1.4c1.5,0.3,3,0.3,4.5,0.2c1-0.1,2-0.3,3-0.5
	c2.4-0.6,4.7-1.5,6.9-2.7c3.2-1.7,4.7-2.7,6.2-3.7c2-1.3,3.8-2.8,5.5-4.4c1.6-1.6,3.2-3.3,4.6-5.1c1.4-1.7,3-3.3,4.7-4.8
	c1.6-1.4,3.4-2.7,5.4-3.7c1.9-1,3.9-1.9,5.9-2.7c2-0.8,4.2-1.4,6.3-1.7c0.8-0.1,1.6-0.3,2.7-0.4h0.2c-0.8,0.3-1.6,0.6-2.4,1
	c-1.3,0.6-2.5,1.4-3.6,2.3c-1.1,0.8-2.2,1.8-3.2,2.8c-1.4,1.5-2.7,3.1-3.8,4.9c-1,1.8-1.8,3.7-2.3,5.6c-0.3,1.3-0.6,2.7-0.7,4.1
	c-0.1,1.4-0.1,2.8,0.2,4.2c0.3,2,0.9,4,1.8,5.8c0.9,1.8,2.2,3.5,3.8,4.9c1,0.9,2.2,1.7,3.5,2.4c1.2,0.6,2.5,1.2,3.9,1.5
	c2,0.5,4,0.7,6.1,0.5c2.1-0.2,4.1-0.8,5.9-1.8c1.3-0.7,2.4-1.6,3.4-2.6c1.1-1.1,1.9-2.3,2.5-3.7c0.9-2.1,1-4.5,0.3-6.7
	c-0.8-3.3-3.4-5.9-6.7-6.8c-1.2-0.3-2.5-0.3-3.8-0.1c-1.4,0.2-2.8,0.7-4,1.5c-1,0.8-1.5,2.1-1.5,3.3c0.2,0.9,0.9,1.2,1.9,1.1
	c1.5-0.2,3-0.6,4.5-1.1c0.7-0.2,1.5-0.3,2.2-0.2c0.7,0.1,1.4,0.3,2,0.8c1.1,0.8,1.8,1.9,2.1,3.2c0.3,1.4,0.2,2.8-0.3,4.1
	c-0.6,1.5-1.5,2.9-2.8,4c-1.8,1.5-4,2.5-6.3,2.7c-1.8,0.1-3.5,0-5.2-0.5c-1.2-0.3-2.3-0.8-3.3-1.4c-1.1-0.6-2-1.3-2.9-2.1
	c-1.3-1.2-2.3-2.6-3.1-4.2c-0.8-1.6-1.2-3.3-1.3-5.1c-0.1-1.2,0-2.3,0.1-3.5c0.5-2.8,1.5-5.6,3.1-8c0.9-1.4,2-2.7,3.3-3.9
	c0.9-0.8,1.8-1.5,2.7-2.2c1-0.7,2-1.3,3.1-1.8c1.6-0.7,3.3-1.3,5-1.6c1.7-0.4,3.5-0.5,5.2-0.4c1.2,0.1,2.4,0.2,3.6,0.5
	c2.9,0.7,5.7,1.5,8.4,2.7c2,0.9,3.5,1.6,4.8,2.3s2.2,1.2,3.2,1.8c2.6,1.6,5,3.5,7.2,5.8c2.2,2.2,4.2,4.6,6,7.2l2.2,3.1
	c1,1.5,2,3.1,2.8,4.7c0.8,1.6,1.4,3.3,1.8,5c0.2,1.2,0.3,2.3,0.2,3.5c-0.1,1.2-0.4,2.3-0.8,3.4c-0.6,1.5-1.6,2.8-3,3.7
	c-1.2,0.7-2.5,1.1-3.9,1c-0.9,0-1.8-0.3-2.6-0.7c-1.3-0.6-1.9-2.1-1.4-3.4c0.1-0.2,0.2-0.3,0.3-0.5c0.2-0.5,0.6-1,1-1.3
	c0.3-0.3,0.5-0.4,0.6-0.7c0.3-1.3,0.8-2.5-0.2-3.6c-0.6-0.6-1.4-0.9-2.2-0.7c-1,0.1-2,0.7-2.6,1.5c-2.6,3.5-1.9,8.3,1.6,10.9
	c1,0.7,2.1,1.2,3.3,1.4c2.4,0.5,5,0,7.1-1.3c1.9-1.2,3.3-2.9,4.2-4.9c0.9,2,2.3,3.7,4.2,4.9c2.1,1.3,4.6,1.7,7.1,1.3
	c4.3-0.7,7.1-4.8,6.4-9c-0.2-1.2-0.7-2.4-1.4-3.4c-0.6-0.8-1.5-1.4-2.6-1.5c-0.8-0.1-1.6,0.1-2.2,0.7c-1,1.1-0.5,2.4-0.2,3.6
	c0.1,0.3,0.3,0.4,0.6,0.7c0.4,0.4,0.8,0.8,1,1.3c0.8,1.2,0.6,2.8-0.6,3.6c-0.1,0.1-0.3,0.2-0.5,0.3c-0.8,0.4-1.7,0.7-2.6,0.7
	c-1.4,0-2.7-0.3-3.9-1c-1.4-0.9-2.4-2.2-3-3.7c-0.4-1.1-0.7-2.2-0.8-3.4c-0.1-1.2,0-2.3,0.2-3.5c0.3-1.7,0.9-3.4,1.8-5
	c0.8-1.6,1.8-3.2,2.8-4.7c0.8-1.2,1.5-2.2,2.2-3.1c1.8-2.6,3.8-5,6-7.2c2.1-2.2,4.5-4.2,7.2-5.8c1-0.6,2-1.1,3.2-1.8
	s2.7-1.4,4.8-2.3c2.7-1.1,5.5-2,8.4-2.7c1.2-0.3,2.4-0.4,3.6-0.5c1.7-0.1,3.5,0,5.2,0.4c1.7,0.3,3.4,0.9,5,1.6
	c1.1,0.5,2.1,1.1,3.1,1.8c1,0.7,1.9,1.4,2.7,2.2c1.2,1.2,2.3,2.4,3.3,3.9c1.6,2.4,2.6,5.2,3.1,8c0.2,1.2,0.3,2.4,0.2,3.6
	c-0.1,1.8-0.6,3.5-1.3,5.1c-0.7,1.6-1.8,3-3.1,4.2c-0.9,0.8-1.9,1.5-2.9,2.1c-1.1,0.6-2.2,1-3.3,1.4c-1.7,0.5-3.5,0.6-5.2,0.5
	c-2.3-0.2-4.6-1.1-6.3-2.7c-1.2-1.1-2.2-2.5-2.8-4c-0.5-1.3-0.6-2.7-0.3-4.1c0.3-1.3,1.1-2.4,2.1-3.2c0.6-0.4,1.3-0.7,2-0.8
	c0.8-0.1,1.6,0,2.3,0.2c1.4,0.5,3,0.9,4.5,1.1c1,0.1,1.8-0.2,1.9-1.1c0.1-1.3-0.5-2.5-1.5-3.3c-1.2-0.8-2.5-1.3-4-1.5
	c-1.3-0.2-2.5-0.2-3.8,0.1c-3.3,0.8-5.9,3.4-6.7,6.8c-0.7,2.2-0.5,4.6,0.3,6.7c0.6,1.4,1.4,2.6,2.5,3.7c1,1,2.2,1.9,3.4,2.6
	c1.8,1,3.8,1.6,5.9,1.8c2,0.2,4.1,0,6.1-0.5c1.3-0.4,2.6-0.9,3.9-1.5c1.2-0.6,2.4-1.4,3.4-2.4c1.6-1.4,2.8-3,3.8-4.9
	c0.9-1.8,1.6-3.8,1.8-5.8c0.2-1.4,0.2-2.8,0.2-4.2c-0.1-1.4-0.3-2.8-0.7-4.1c-0.5-2-1.3-3.9-2.3-5.6c-1-1.8-2.3-3.4-3.8-4.9
	c-1-1-2-1.9-3.2-2.8c-1.1-0.9-2.3-1.6-3.6-2.3c-0.8-0.4-1.6-0.7-2.4-1h0.2c1,0.1,1.8,0.2,2.7,0.4c2.2,0.4,4.3,1,6.3,1.7
	c2,0.8,4,1.7,5.9,2.7c1.9,1,3.8,2.2,5.4,3.7c1.7,1.4,3.3,3,4.7,4.8c1.4,1.8,3,3.5,4.6,5.1c1.7,1.6,3.5,3.1,5.5,4.3
	c1.5,0.9,3,2,6.2,3.7c2.2,1.1,4.5,2,6.9,2.7c1,0.3,2,0.4,3,0.5c1.5,0.1,3,0.1,4.5-0.2c1.5-0.2,3-0.7,4.4-1.4
	c0.9-0.5,1.8-1.1,2.6-1.8c0.8-0.7,1.5-1.4,2.2-2.2c1-1.1,1.8-2.4,2.4-3.7c0.7-1.3,1.1-2.8,1.2-4.3c0.1-1,0.1-2.1-0.1-3.1
	c-0.2-1-0.5-2-1-2.9c-0.7-1.3-1.7-2.5-2.8-3.4c-1.6-1.3-3.5-2.2-5.5-2.5c-1.6-0.2-3.2,0-4.7,0.6c-1.3,0.7-2.4,1.7-3.2,2.9
	c-0.9,1.3-1.3,2.9-1.1,4.5c0.2,1.1,0.6,2.1,1.4,2.9c0.8,0.8,1.8,1.4,2.9,1.6c1,0.2,2.1-0.1,2.8-0.8c0.6-0.6,0.6-1.6,0.1-2.2
	c-0.3-0.3-0.6-0.6-0.9-0.9l-0.4-0.3l-0.1-0.1c0,0,0-0.1-0.1-0.1c0-0.1-0.1-0.2-0.1-0.3c0-0.1,0-0.2,0-0.4v-0.1c0,0,0,0.1,0,0.1
	l-0.1,0.1l-0.1,0.1c-0.5,0.2-1,0.1-1.4-0.3c-0.3-0.5-0.3-1.1-0.1-1.7c0.4-0.9,1-1.7,1.9-2.2c0.6-0.4,1.3-0.6,2-0.8
	c0.8-0.1,1.5-0.1,2.3,0.1c1.2,0.3,2.2,0.8,3.1,1.6c0.9,0.7,1.7,1.7,2.2,2.7c0.4,0.7,0.6,1.5,0.7,2.2c0.3,2-0.1,4-1.1,5.7
	c-1,1.8-2.3,3.3-4,4.4c-0.7,0.5-1.4,0.9-2.1,1.2c-1.1,0.5-2.3,0.7-3.5,0.9c-2.1,0.2-4.1,0-6.1-0.7c-1.9-0.7-3.8-1.5-5.7-2.5
	c-1.9-1-3.7-2.1-5.4-3.4c-1.8-1.3-3.5-2.7-5.1-4.2l-0.2-0.2c0.6,0,1.3-0.1,1.9-0.4c0.8-0.3,1.5-0.7,2.1-1.2c0.6-0.5,1.1-1.2,1.6-1.8
	c0.5-0.7,0.8-1.4,1.1-2.1c0.3-0.8,0.4-1.6,0.3-2.4c0-0.8-0.2-1.6-0.6-2.4c-0.4-0.7-0.8-1.4-1.3-2c-0.5-0.6-1.2-1.2-1.9-1.5
	c-0.8-0.4-1.7-0.6-2.5-0.5c-0.7,0.1-1.4,0.4-2,0.8c-0.5,0.3-0.8,0.8-1.1,1.3c-0.2,0.5-0.3,1.1-0.2,1.6c0.1,0.5,0.3,1,0.7,1.4
	c0.4,0.5,1,0.8,1.6,0.8c0.7,0.1,1.1-0.3,1.1-0.7s-0.3-0.5-0.5-0.7c-0.2,0-0.4-0.1-0.5-0.3c-0.2-0.2-0.4-0.5-0.5-0.8
	c-0.1-0.4,0-0.8,0.2-1.1c0.3-0.5,0.8-0.8,1.3-0.8c0.6-0.1,1.1,0,1.7,0.3c0.6,0.3,1,0.7,1.5,1.1c0.4,0.5,0.8,1,1,1.6
	c0.3,0.6,0.4,1.2,0.5,1.9c0.1,0.7,0,1.3-0.2,1.9c-0.2,0.6-0.5,1.2-0.8,1.7c-0.3,0.6-0.8,1.1-1.3,1.5c-0.5,0.4-1.1,0.8-1.7,1.1
	c-0.6,0.3-1.3,0.4-1.9,0.5c-0.2,0-0.5,0-0.7,0l-3.6-3.3c-1.3-1.1-2.6-2.3-5.3-4.5c-1.9-1.5-3.9-2.8-6-3.9c-2.1-1.1-4.3-2.1-6.6-2.7
	c-0.9-0.3-1.8-0.5-2.7-0.7c1.9,0.1,4.1,0.1,7.9,0.1c8.7,0,8.7-0.3,17.5-0.3s8.7,0.2,17.5,0.2s8.7-0.3,17.5-0.3H828
	c2.3-0.2,4.6-0.2,6.9-0.1c1.6,0,3.1,0.5,4.4,1.5c1.1,0.7,1.8,1.9,1.9,3.2c0.2,1.3-0.4,2.5-1.4,3.2c-0.6,0.4-1.4,0.6-2.2,0.4
	c-0.8-0.1-1.4-0.6-1.7-1.4c-0.2-0.6,0.1-1.3,0.7-1.6c0.5-0.1,1,0.1,1.3,0.5c0.1,0.1,0.2,0.2,0.3,0.2c0.1-0.2,0.1-0.4,0-0.6
	c-0.1-0.4-0.5-0.8-0.8-0.9c-0.3-0.1-0.6-0.2-0.8-0.2c-0.3,0-0.7,0.1-1,0.3c-1.1,0.7-1.5,2.2-0.9,3.4c0.5,1,1.3,1.7,2.4,2
	c1.2,0.3,2.4,0.2,3.5-0.4c1.5-0.8,2.4-2.3,2.5-4C843.2,54.8,842.2,52.7,840.5,51.5z M703.5,65.4c0,0.6-0.1,1.2-0.3,1.8
	c-2.1,2.4-4,4.9-5.8,7.6c-0.7,1-1.3,2-2.2,3.3c-1,1.6-2,3.4-2.8,5.1c-0.3,0.6-0.6,1.3-0.8,2c-0.2-0.7-0.5-1.3-0.8-2
	c-0.8-1.8-1.8-3.5-2.8-5.1c-0.8-1.3-1.5-2.3-2.2-3.3c-1.8-2.6-3.7-5.2-5.8-7.6c-0.1-0.6-0.2-1.2-0.3-1.8c-0.1-0.7,0-1.4,0.1-2.1
	c0.1-0.7,0.3-1.4,0.6-2c0.3-0.6,0.6-1.3,0.9-1.8c0.4-0.6,0.9-1.1,1.4-1.5c0.6-0.4,1.2-0.7,1.9-0.8c0.7-0.2,1.3-0.2,2-0.1
	c0.6,0.1,1.3,0.3,1.8,0.6c0.5,0.3,1,0.8,1.3,1.3c0.3,0.5,0.3,1.1,0.1,1.7c-0.2,0.5-0.5,0.9-0.9,1.2c-0.3,0.2-0.6,0.3-1,0.3
	c-0.3,0-0.5-0.1-0.7-0.2c-0.3,0-0.6,0-0.8,0.3s0,0.9,0.6,1.2c0.5,0.3,1.2,0.5,1.8,0.4c1.1-0.1,2-0.8,2.5-1.8
	c0.2-0.5,0.3-0.9,0.3-1.4c0,0.5,0.1,1,0.3,1.4c0.5,1,1.4,1.6,2.5,1.8c0.6,0.1,1.3,0,1.8-0.4c0.5-0.4,0.8-0.9,0.6-1.2
	s-0.5-0.3-0.8-0.3c-0.2,0.1-0.5,0.2-0.7,0.2c-0.4,0-0.7-0.1-1-0.3c-0.4-0.3-0.7-0.7-0.9-1.2c-0.2-0.6-0.2-1.2,0.1-1.7
	c0.3-0.6,0.7-1,1.3-1.3c0.5-0.3,1.2-0.6,1.8-0.6c0.7-0.1,1.3,0,2,0.1c0.7,0.1,1.3,0.4,1.9,0.8c0.6,0.4,1.1,0.9,1.4,1.5
	c0.4,0.6,0.7,1.2,0.9,1.8c0.3,0.6,0.5,1.3,0.6,2C703.6,64,703.6,64.7,703.5,65.4L703.5,65.4z M734.6,51.8c-0.5,0-1,0-1.5,0
	c-1.4,0-2.8,0.1-4.2,0.3c-3.4,0.5-6.7,1.5-9.8,2.9c-1.8,0.8-3.6,1.8-5.3,2.9c-1.3,0.9-2.3,1.6-3.3,2.4c-2,1.6-3.9,3.4-5.7,5.3
	c0.1-0.8,0.1-1.5-0.1-2.3c-0.1-0.8-0.4-1.6-0.6-2.4c-0.3-0.8-0.6-1.5-1.1-2.2c-0.4-0.7-1-1.4-1.7-1.9c-0.7-0.5-1.5-0.9-2.4-1
	c-0.8-0.1-1.7-0.2-2.5-0.1c-0.9,0.1-1.7,0.4-2.4,0.8c-1.4,0.8-2.2,2.2-2.3,3.7c0-0.6-0.2-1.3-0.5-1.8c-0.4-0.8-1-1.4-1.8-1.9
	c-0.7-0.4-1.6-0.7-2.4-0.8c-0.9-0.1-1.7,0-2.5,0.1c-0.9,0.1-1.7,0.5-2.3,1c-0.7,0.5-1.3,1.1-1.7,1.9c-0.4,0.7-0.8,1.5-1.1,2.2
	c-0.3,0.8-0.5,1.6-0.6,2.4c-0.1,0.8-0.2,1.5-0.1,2.3c-1.8-1.9-3.6-3.7-5.7-5.3c-1-0.8-2-1.5-3.3-2.4c-1.7-1.1-3.4-2.1-5.3-2.9
	c-3.1-1.4-6.4-2.4-9.8-2.9c-1.4-0.2-2.8-0.3-4.2-0.3c-0.5,0-1,0-1.5,0l-0.8-0.2c4.1,0.1,5.7,0.1,12.2,0.1h17.5h14h14h17.5
	c6.5,0,8.2-0.1,12.2-0.1L734.6,51.8z"/>
<path class="st1" d="M764.6,76.1c-0.1-0.3-0.1-0.6-0.2-1.1c-0.2-1.1-0.3-1.1-0.5-2.3c-0.2-0.6-0.3-0.8-0.3-1.1
	c-0.1-0.4-0.2-0.7-0.4-1.1c-0.2-0.5-0.4-1-0.7-1.5c-0.4-0.9-0.9-1.8-1.4-2.6c-0.2-0.3-0.3-0.6-0.2-0.3l0.3,0.6
	c0.3,0.7,0.3,0.8,0.6,1.8c0.3,1.1,0.4,1.1,0.6,2.2l0.3,1.1c0.1,0.3,0.2,0.5,0.3,1.1c0.1,0.7,0.1,1.5,0.1,2.2c0,0.4,0.1,0.7,0.2,1.1
	c0.1,0.4,0.1,0.7,0.1,1.1c0,0.7-0.1,1.5-0.2,2.2c-0.1,1.1,0.2,1.1,0,2.2c0,0.4-0.1,0.7-0.2,1.1l-0.2,1.1c-0.1,0.5-0.3,1-0.6,1.4
	c-0.1,0.4-0.2,0.8-0.2,1.1c-0.2,0.5,0,1.1,0.4,1.5c0.2,0.2,0.6,0.2,0.8,0c0.3-0.5,0.5-0.9,0.6-1.4c0.2-0.8,0.3-1.6,0.4-2.3
	c0.1-0.6,0.2-0.9,0.2-1.1c0.1-0.4,0.1-0.8,0.2-1.2c0.1-0.8,0.1-1.6,0.1-2.3c0.1-0.8,0.1-1.6,0.1-2.3
	C764.7,76.9,764.7,76.5,764.6,76.1z"/>
</svg>
