<?xml version="1.0" encoding="utf-8"?>
<!-- Generator: Adobe Illustrator 25.4.1, SVG Export Plug-In . SVG Version: 6.00 Build 0)  -->
<svg version="1.1" id="Capa_1" xmlns="http://www.w3.org/2000/svg" xmlns:xlink="http://www.w3.org/1999/xlink" x="0px" y="0px"
	 viewBox="0 0 1025 572.6" style="enable-background:new 0 0 1025 572.6;" xml:space="preserve">
<style type="text/css">
	.st0{clip-path:url(#SVGID_00000030481414039906983360000007190000495240082337_);}
	.st1{clip-path:url(#SVGID_00000031904997098283818240000008171111098868335545_);}
	.st2{fill:#FFFFFF;}
	.st3{fill:#F5EDEB;}
	.st4{fill:#F7D4D1;}
</style>
<g>
	<defs>
		<rect id="SVGID_1_" x="-27.5" y="-246.3" width="1080" height="1080"/>
	</defs>
	<clipPath id="SVGID_00000104676962258751457580000013378277780383774903_">
		<use xlink:href="#SVGID_1_"  style="overflow:visible;"/>
	</clipPath>
	<g style="clip-path:url(#SVGID_00000104676962258751457580000013378277780383774903_);">
		<g>
			<defs>
				<rect id="SVGID_00000093862597795770544340000018217342502651274136_" x="-27.5" y="-246.3" width="1080" height="1080"/>
			</defs>
			<clipPath id="SVGID_00000013178954564001975500000015715675097079826871_">
				<use xlink:href="#SVGID_00000093862597795770544340000018217342502651274136_"  style="overflow:visible;"/>
			</clipPath>
			<g style="clip-path:url(#SVGID_00000013178954564001975500000015715675097079826871_);">
				<path class="st2" d="M391.1,407c-1.7,0.2-4.2-1.7-5.6-4.2c-1.5-2.2-1.2-4.2,0.5-4.2c28.1-1.2,60.2-16.4,84.1-35.2
					c11.7-9,21.3-18.8,27.4-28.4c6.1-9,8.8-17.4,7.1-24c-0.6-1.8-1.7-3.4-3.2-4.6c-1.1-1-2.5-1.8-3.9-2.2
					c-14.7-5.9-42.1,0-71.6,15.2c-30.1,15.4-69.2,37.6-108.6,90.5C306,425.1,296,441,288.9,458.3c-9.8,24-12,45-7.1,60.4
					c2.7,8.6,7.8,15.2,15.2,19.1c9,4.4,21.3,5.9,36.4,3.4c35.9-5.9,87.5-34,152.3-93.9c1-0.7,3.4,0.3,5.4,2.2c2,2.2,2.7,4.6,1.7,5.6
					c-65.3,60.4-117.1,88.5-153.8,94.6c-16.4,2.7-30.1,0.7-40.6-4.7c-12-6.1-20.3-16.1-24.5-29.3c-5.1-16.9-2.9-39.4,7.1-64.3
					c7.1-17.6,17.6-33.8,28.9-49.1c39.6-53.1,79-75.6,109.3-91c30.6-15.6,59.4-21.8,76.1-14.9c2.6,1.1,5.1,2.5,7.3,4.2
					c4.5,3.4,7.9,8.2,9.5,13.7c2.4,8.3-0.5,18.1-7.1,28.1c-6.4,9.5-16.1,19.8-27.9,28.9C452.7,390.3,419.9,406,391.1,407"/>
				<path class="st2" d="M492,441.2c1-0.7,3.4,0.2,5.4,2.5s2.5,4.6,1.5,5.6c-0.7,0.4-1.3,0.9-2,1.5c-5.1,4.6-9.3,12.2-12,19.8
					c-2,6.4-2.9,12.2-1.7,14.7c1.5,0.5,3.1,0.5,4.6,0c2.8-1,5.3-2.6,7.3-4.6c3.4-2.9,6.6-7.3,9.5-13c1.7-3.2,3-6.5,3.9-10
					c-4.1-3.4-7.3-7.6-9.5-12.5c-1.8-3.8-2.6-7.9-2.5-12c0.5-3.4,2-5.9,4.9-6.4c2.1-0.2,4.3,0.2,6.1,1.3c3.3,1.9,6,4.8,7.6,8.3
					c1.4,2.8,2.3,5.7,2.7,8.8c0.5,3.5,0.5,7,0,10.5c5.4,1,13.5,2,22-2.9c1.2-0.7,2.5-1.7,4.4,0.5c1.7,2.2,1.5,3.9,0.3,4.6
					c-11.5,6.4-20,7.3-27.6,4.6c-0.9,4.3-2.5,8.4-4.7,12.2c-2.9,5.6-6.4,10.5-10,13.7c-2.9,2.5-5.6,4.4-8.3,5.1
					c-3.2,1-6.6,0.6-9.5-1c-1.8-1-3.5-2.3-4.9-3.9l-1.5-1.5c-3.9-5.6-3.7-14.7-1-23.2c2.7-8.1,7.3-16.1,12.7-21
					C490.6,442.4,491.3,441.7,492,441.2 M509.9,451.7c0.5-3.7,0.5-7.3,0-11c-0.2-1.8-0.6-3.6-1.2-5.4h0.3c-0.5-0.3-1.2-0.3-1.7,0
					c-1.5,0-2.2,1.5-2.5,3.7c-0.2,2.6,0.3,5.2,1.5,7.6C507,448.6,508.3,450.4,509.9,451.7"/>
				<path class="st2" d="M547.3,439.5c0.7-1.2,3.2-0.7,5.1,1.2c2.2,2,3.2,4.6,2.4,5.9l-6.1,11c13.2-11,27.6-21.8,33-20.3h0.5
					c7.3,2.2,8.6,6.8,6.8,13c-0.7,2.7-2.5,5.9-4.2,9.5c-3.2,6.4-6.8,13.5-6.8,13.5c7.8,5.1,34.2-18.1,34.5-18.1c0.7-1,3.4-4.2,5.4-2
					c2.2,2,0.7,2.5-0.2,3.7c0,0-26.7,31.5-39.4,23.2c-11-7.1-5.6-17.9-1-27.4c1-1.9,1.9-3.9,2.7-5.9c-13.9,7.3-46.5,38.4-47.4,39.4
					c-0.7,1-2.9,0.3-4.9-1.5c-2-2.2-3.2-4.6-2.4-5.9L547.3,439.5z"/>
				<path class="st2" d="M613.8,461.5c-1,1-3.9,2.4-5.9,0.5c-2-2.2,3.2-6.6,4.2-7.6l18.3-22.3c1.8-1.9,3.6-3.7,5.6-5.4
					c1-1,3.4,0,5.1,2.2c2,2,2.9,4.6,2,5.6l-5.9,5.6c-5.1,5.9-12,16.4-9.3,27.6c1.5,7.1,0.7,12.7-1.2,16.9c-1.2,2.1-2.8,3.9-4.6,5.4
					c-1.7,1.2-3.6,2.2-5.6,2.7c-3.2,0.7-6.6,0.3-9.5-1.2c-13.9-7.1-6.4-20.8-6.4-21c0.7-1.2,2.9-0.7,5.1,1.2s3.2,4.6,2.7,5.9
					c0,0.3-3.4,6.4-2.9,6.6c1.6,0.5,3.3,0.5,4.9,0c1.8-0.3,3.5-1,4.9-2.2c1.6-1.1,2.9-2.6,3.7-4.4c1.7-3.4,2.5-7.8,1.2-13.5
					c0-3.2-2.2-3.4,3.7-14.2L613.8,461.5z"/>
				<path class="st2" d="M685.7,459c-0.7,1.5-2.9,1-4.9-1c-2.2-2-3.4-4.6-2.9-5.9c0.2,0,4.2-8.5,3.2-8.5
					c-4.7-0.3-14.7,6.4-22.3,14.9c-2.8,3-5.3,6.4-7.3,10c-1.6,2.9-2.6,6.2-2.9,9.5c0,2.2,0.5,4.2,1.7,5.4
					c10.3,9,60.4-28.6,60.6-28.6c1-0.2,3.2-3.2,4.9-2.7c2,2.2,2.7,4.6,1.7,5.6c-0.2,0-53.1,45.2-69.4,30.6
					c-5.4-4.9-7.6-10.3-7.3-15.6c0.1-4,1.2-7.8,3.2-11.2c2.1-3.7,4.7-7.3,7.6-10.5c8.1-9,19.1-16.1,24.7-15.9
					C697,435.8,685.7,459.1,685.7,459"/>
				<path class="st2" d="M729,434.1c1.2-1,3.7,0,5.6,2.2s2.7,4.6,1.5,5.6c-5.4,4.6-14.2,15.2-19.6,25.4c-3.4,6.9-3.2,10.8-0.7,12
					c10,1.5,37.2-25,37.2-25.2c1-1,2.7-2.9,4.7-0.7c2.2,2.2,1.2,2.9,0.3,3.9c-0.3,0-40.8,44-51.4,25.7c-3.4-6.1-1.7-14.4,2.5-22.7
					C714.3,449.8,723.4,438.8,729,434.1 M744.2,427c-1,1.2-3.4,0.2-5.4-1.7c-2-2.2-2.9-4.6-2-5.9l13.7-15.6c1-1.2,3.2-0.3,5.4,1.7
					c2,2.2,2.7,4.6,2,5.9L744.2,427z"/>
				<path class="st2" d="M780.1,455.6c-7.9,3.9-16.4,6.4-25.2,7.4c-16.6,35.7,49.4,5.4,57-8.3c0.7-1.5,3.2-3.2,5.4-1.2
					c2,2,2,2.9,1.2,4.4c-6.8,12-45,38.4-61.9,28.9c-8.3-4.6-13.5-14.4-11.5-24c1.2-6.1,4.9-12.5,9.8-18.1
					c4.8-5.3,10.1-10.1,15.9-14.4c7.1-4.9,13.7-7.8,16.4-7.3c2.3,0.6,4.4,1.8,5.9,3.7c2.3,2.3,3.4,5.6,2.9,8.8
					c-0.4,2.4-1.2,4.7-2.5,6.9C790.5,447.9,785.8,452.6,780.1,455.6 M762.7,451.7c3.8-1.1,7.4-2.5,11-4.1c5.1-2.7,9.5-7.8,12.2-12.5
					c0.5-1,0.7-1.7,1.2-2.7c-3.4,1.6-6.6,3.6-9.5,5.9C772.2,442.2,767.2,446.7,762.7,451.7"/>
				<path class="st2" d="M819.7,439.5c0.7-1.2,3.2-0.7,5.1,1.2c2.2,2,3.2,4.6,2.5,5.9l-6.1,11c13.2-11,27.6-21.8,33-20.3h0.5
					c7.3,2.2,8.5,6.8,6.8,13c-0.7,2.7-2.4,5.9-4.2,9.5c-3.2,6.4-6.8,13.5-6.8,13.5c7.8,5.1,34.2-18.1,34.5-18.1c0.7-1,3.4-4.2,5.4-2
					c2.2,2,0.7,2.5-0.3,3.7c0,0-26.7,31.5-39.4,23.2c-11-7.1-5.6-17.9-1-27.4c1-1.9,1.9-3.9,2.7-5.9c-13.9,7.3-46.4,38.4-47.4,39.4
					c-0.7,1-2.9,0.3-4.9-1.5c-2-2.2-3.2-4.6-2.5-5.9L819.7,439.5z"/>
				<path class="st2" d="M954.2,343.6c0.7-1,3.2-0.5,5.1,1.7c2,2,2.9,4.6,2.2,5.6c0,0.2-17.8,24.9-36.9,53.5H987
					c1.7,0,4.4,2,5.6,4.2c1.5,2.4,1.2,4.4-0.5,4.4H919c-5.1,7.8-10.3,15.9-15.2,23.7v0.2c0,1-0.5,1.5-1,1.5
					c-14.9,24.2-23,38.1-20.3,43c4.4,8.3,54-31.3,54-31.5c1-0.7,2.5-1.2,4.4,1s0.5,3.4-0.5,4.2c-0.2,0.2-55.8,55-67.7,33
					c-3.7-6.9,7.6-30.3,23.2-56.2c-0.3,0,1.5-2.7,1.5-2.7c0.5-18.6-62.1-16.1-62.1-16.1c-1.7,0-4.4-2-5.6-4.4
					c-1.5-2.2-1.2-4.2,0.5-4.2h82.7C933.4,372.5,953.9,343.8,954.2,343.6 M900.2,424.8c2.4-3.9,4.9-7.8,7.3-11.7l-30.6-1.2
					C884.3,414.7,896.2,419.6,900.2,424.8"/>
				<path class="st2" d="M962.5,455.6c-7.9,3.9-16.4,6.4-25.2,7.4c-16.6,35.7,49.4,5.4,57-8.3c0.7-1.5,3.2-3.2,5.4-1.2
					c2,2,2,2.9,1.2,4.4c-6.8,12-45,38.4-61.9,28.9c-8.3-4.6-13.4-14.4-11.5-24c1.2-6.1,4.9-12.5,9.8-18.1
					c4.8-5.3,10.1-10.2,15.9-14.4c7.1-4.9,13.7-7.8,16.4-7.3c2.3,0.6,4.4,1.8,5.9,3.7c2.3,2.3,3.4,5.6,2.9,8.8
					c-0.4,2.4-1.2,4.7-2.4,6.9C972.9,447.9,968.3,452.6,962.5,455.6 M945.2,451.7c3.8-1.1,7.4-2.5,11-4.1c5.1-2.7,9.5-7.8,12.2-12.5
					c0.5-1,0.7-1.7,1.2-2.7c-3.4,1.6-6.6,3.6-9.5,5.9C954.6,442.2,949.7,446.7,945.2,451.7"/>
				<path class="st2" d="M594.3,332.3c-1.1,0.2-2.6-1.1-3.6-2.6c-0.9-1.4-0.8-2.6,0.3-2.6c17.9-0.8,38.2-10.4,53.4-22.4
					c7.5-5.7,13.5-12,17.4-18c3.9-5.7,5.6-11,4.5-15.2c-0.4-1.2-1.1-2.2-2-3c-0.7-0.6-1.6-1.1-2.5-1.4c-9.3-3.7-26.7,0-45.5,9.6
					c-19.1,9.8-44,23.9-69,57.5c-7.2,9.6-13.5,19.7-18,30.8c-6.2,15.2-7.6,28.6-4.5,38.4c1.5,5.2,4.9,9.5,9.6,12.1
					c5.8,2.8,13.5,3.7,23.2,2.2c22.8-3.7,55.6-21.6,96.8-59.6c0.6-0.5,2.2,0.1,3.4,1.4c1.3,1.4,1.7,3,1.1,3.6
					c-41.5,38.4-74.4,56.2-97.7,60.1c-10.4,1.7-19.1,0.5-25.8-3c-7.5-3.8-13.2-10.5-15.5-18.6c-3.3-10.7-1.9-25,4.5-40.9
					c4.5-11.2,11.2-21.4,18.3-31.2c25.2-33.7,50.2-48,69.4-57.8c19.4-10,37.8-13.8,48.3-9.5c1.7,0.7,3.2,1.6,4.7,2.6
					c2.9,2.2,5,5.2,6.1,8.7c1.6,5.3-0.3,11.5-4.5,17.9c-4.9,7-10.9,13.2-17.7,18.4C633.5,321.7,612.7,331.7,594.3,332.3"/>
				<path class="st2" d="M678.8,359c0.6,1.6,0.2,2.5-1.1,2.2c-1.5-0.5-2.7-1.7-3.4-3.1c-3.1-3-10.7,0.6-13.5,3
					c-5.5,4.4-9.3,10.5-10.7,17.4c5.4-1.5,19.6-18,19.6-18c0.6-0.6,2-0.2,3.4,1.2c1.1,1.3,1.7,2.6,1.2,3.4c-0.3,0.8-2.2,4.8-1.2,9.2
					c0.6,3.7,20.8-13.2,21.1-13.4c0.6-0.9,1.9-1.1,2.8-0.4c0.1,0.1,0.2,0.2,0.3,0.3c1.2,1.4,1.1,2.6,0.5,3.3
					c-10.3,9.2-16.3,14.6-20.5,16.8c-7.1,3.7-12.6,1.5-12.4-6.1c-5.6,5.3-11.3,10.1-14.8,8.5c-1.2-0.5-2.3-1.3-3.1-2.3
					c-1.5-1.8-2.2-4.2-1.9-6.5c0.2-2,0.8-4,1.7-5.9c2.3-4.8,5.6-9,9.6-12.4C663.5,350.4,676.2,350.1,678.8,359"/>
				<path class="st2" d="M698.7,348.9c0.3-0.8,1.9-0.3,3.1,0.9c1.4,1.2,2.2,2.8,1.7,3.7l-2.8,4.8c4.8-4.7,9.5-8.5,12.4-9.6
					c9.6-3.3,8.1,7.3,5,16.8c0.5-0.3,1-0.6,1.6-0.8c1.2-0.6,2.4-1,3.7-1.1c2.5-0.1,4.5,1.1,5.9,4c0.8,1.7,0.8,4.4-0.5,7.9
					c-0.2,0.3,16.6-13.5,16.8-13.5c0.6-0.6,2-2.3,3.3-0.9c1.4,1.2,1.2,2.2,0.6,2.8c-0.2,0.2-37.3,39.3-25.6,7.3
					c0.2-0.6,0.3-1.1,0.5-1.7l-0.6,0.3c-4.2,2.2-9.6,6.7-10.7,8.5v0.2c-0.5,0.9-1.9,0.6-3.3-0.6s-2-3-1.7-3.7c0-0.1,9.5-20.3,9-20.2
					c-8.4,3-30.8,30.3-30.9,30.5c-0.5,0.6-1.9,0.1-3.1-0.9c-1.3-1.3-2-3-1.6-3.7L698.7,348.9z"/>
				<path class="st2" d="M756.4,349.5c0.8-0.6,2.3,0,3.6,1.4s1.7,3,0.9,3.6c-5,4.7-9.2,10.1-12.4,16.1c-2.2,4.4-2,6.8-0.5,7.6
					c6.4,0.9,23.6-15.9,23.6-16c0.6-0.6,1.7-1.9,3-0.5c1.4,1.4,0.8,1.9,0.2,2.5c-0.2,0-25.9,28-32.6,16.3c-2.2-3.9-1.1-9.2,1.5-14.5
					C747,359.5,752.8,352.5,756.4,349.5 M766,345c-0.6,0.8-2.2,0.2-3.4-1.1c-1.2-1.4-1.9-3-1.2-3.7l8.7-9.9c0.6-0.8,2-0.2,3.4,1.1
					c1.3,1.4,1.7,3,1.3,3.7L766,345z"/>
				<path class="st2" d="M776.6,353c0.5-0.8,2-0.5,3.3,0.8c1.4,1.2,2,3,1.6,3.7l-3.9,7c8.4-7,17.6-13.8,21-12.9h0.3
					c4.7,1.4,5.4,4.4,4.3,8.2c-0.7,2.1-1.6,4.1-2.6,6.1c-2,4-4.3,8.5-4.3,8.5c5,3.3,21.8-11.5,21.9-11.5c0.5-0.6,2.2-2.6,3.4-1.3
					c1.4,1.3,0.5,1.6-0.2,2.3c0,0-16.9,20-25,14.8c-7-4.5-3.6-11.3-0.6-17.4c0.6-1.2,1.2-2.5,1.7-3.7c-8.9,4.7-29.5,24.4-30.1,25
					s-1.9,0.2-3.1-0.9c-1.2-1.4-2-3-1.5-3.7L776.6,353z"/>
				<path class="st2" d="M844.1,359c0.6,1.6,0.2,2.5-1.1,2.2c-1.5-0.5-2.7-1.7-3.4-3.1c-3.1-3-10.7,0.6-13.5,3
					c-5.5,4.4-9.3,10.5-10.7,17.4c5.4-1.5,19.6-18,19.6-18c0.6-0.6,2-0.2,3.4,1.2c1.1,1.3,1.7,2.6,1.2,3.4c-0.3,0.8-2.2,4.8-1.2,9.2
					c0.6,3.7,20.8-13.3,21.1-13.4c0.6-0.9,1.9-1.1,2.8-0.4c0.1,0.1,0.2,0.2,0.3,0.3c1.2,1.4,1.1,2.6,0.5,3.3
					c-10.3,9.2-16.3,14.6-20.5,16.8c-7.1,3.7-12.6,1.5-12.4-6.1c-5.6,5.3-11.3,10.1-14.8,8.5c-1.2-0.5-2.3-1.3-3.1-2.3
					c-1.5-1.8-2.2-4.2-1.9-6.5c0.2-2,0.8-4,1.7-5.9c2.3-4.8,5.6-9,9.6-12.4C828.8,350.3,841.5,350,844.1,359"/>
				<path class="st2" d="M868.4,345.2c0.5-0.8,2-0.3,3.3,0.9c1.4,1.2,2,3,1.5,3.7l-5.8,9.1c5.4-2.6,12.9-5.1,16-1.2
					c1.4,1.5,0.9,5.1,3,5.3c3.9,0,7.8-0.5,11.5-1.7c0.9-0.3,1.9-1.1,2.8,0.3c1.1,1.6,0.5,2-0.5,2.2c-4.5,1.4-12,3-15.2,2.6
					c-4-0.3-5.3-1.4-8.7-5.4c-2.3-2.8-16.2,9.5-16.2,9.5c-0.3,0.1-8.4,13.8-9.2,15.2c-0.5,0.8-2,0.3-3.3-0.9s-2-3-1.5-3.7
					L868.4,345.2z"/>
				<path class="st2" d="M63.9,163.4c-0.3,0.8-1.5,0.7-2.7-0.4s-1.9-2.4-1.6-3.2c7.8-26.9,86.9-44.5,86.7-15.6
					c0,8.5-8,21.4-17.6,37.1c-1.3,2.1-2.7,4.4-4,6.6c-7.1,11.4-10.8,22.1-11.4,30.4c-0.5,3.5,0,7.1,1.3,10.4
					c2.3,4.7,8.4,4.3,12.7,3.2c19.7-5.1,54.9-47.9,68.8-65c6.8-9.5,14.4-18.4,22.8-26.6c0.5-0.5,1.7-0.1,2.8,0.9s1.7,2.5,1.2,3.2
					c-6.4,8.9-14,18.8-22,28.5c-18.6,26-40.3,62.2-28,75.4c1.1,1.1,1.6,2.5,1.1,3.1s-1.9,0-2.9-1.1c-10.1-10.8-3.3-31.8,8-52.6
					c-11.2,11.9-34.1,35-48.6,38.8c-8.3,2.1-15.7-0.3-19.6-8.4c-1.7-3.5-2.4-7.9-2-12.9c0.8-8.5,4.5-19.3,11.7-31.2
					c1.3-2.3,2.7-4.4,4-6.7c9.5-15.3,17.3-28.1,17.5-36.1C142.1,124.7,71.6,141.8,63.9,163.4"/>
				<path class="st2" d="M200.5,197.7c0.4-0.7,1.7-0.4,2.8,0.7s1.7,2.5,1.3,3.2l-3.3,6c7.2-6,15.1-11.9,18-11.1h0.3
					c4,1.2,4.7,3.7,3.7,7.1c-0.6,1.8-1.4,3.5-2.3,5.2c-1.7,3.5-3.7,7.3-3.7,7.3c4.3,2.8,18.6-9.9,18.8-9.9c0.4-0.5,1.9-2.3,2.9-1.1
					s0.4,1.3-0.1,2c0,0-14.5,17.2-21.4,12.6c-6-3.9-3.1-9.7-0.5-14.9c0.5-1,1-2.1,1.5-3.2c-7.6,4-25.3,20.9-25.8,21.4
					s-1.6,0.1-2.7-0.8c-1.1-1.2-1.7-2.5-1.3-3.2L200.5,197.7z"/>
				<path class="st3" d="M326.4,193.6c0,0,22.2,36.8,10.1,100.5c0,0-107-95.3-28-181.1c0,0,129.5,31.1,58.4,190.8
					c0,0,62.4-69.6,38.9-149.7c-1.7-5.5-3.8-10.8-6.4-15.9c-6.8-13.7-16.6-25.7-28.8-35c-12.2-9.4-26.2-15.9-38.4-25.2
					c-12-9.1-22.5-20.2-31-32.6c-6.2-8.9-11-18.6-14.5-28.8c5.9,17.8,7.4,40.6,1.5,58.5c-4.7,14-14.8,25.7-21.5,38.7
					c-7.7,15.3-12.3,32.1-13.5,49.2c-1.7,23.6,3.5,45,13,66.2c10.4,22.7,24.3,43.5,41.3,61.8c12.3,13.3,26.3,25,41.5,34.9
					c0,0,41.1-98.4-29.2-169.8c0,0-31.6,46,2.7,92.8C322.5,248.7,311.3,210.8,326.4,193.6"/>
				<path class="st3" d="M211.7,347.9c0,0,38.4-19.1,101-2c0,0-103.6,99-182.8,13.4c0,0,41.4-126.5,194.9-42.9
					c0,0-64.4-67.8-146.1-50.8c-5.6,1.2-11.1,2.9-16.3,5.1c-14.2,5.6-27,14.5-37.3,25.9c-10.3,11.4-18,24.8-28.3,36.3
					c-10.1,11.2-21.9,20.8-35,28.2c-9.3,5.4-19.4,9.5-29.9,12.1c18.3-4.4,41.1-4.1,58.4,3.2c13.6,5.8,24.4,16.8,36.8,24.6
					c14.7,8.9,31,14.9,48,17.4c23.4,3.6,45.2,0.2,67-7.6c23.4-8.5,45.3-20.7,64.8-36.2c14.3-11.2,27.1-24.2,38.1-38.6
					c0,0-94.8-48.9-171.6,15.4c0,0,43.4,35.2,92.8,4.8C266.3,356.1,227.6,364.2,211.7,347.9"/>
				<path class="st3" d="M401.5,275.1c0,0-3.8-30,11.7-37.3c0,0,9.3-3.7,11,3c-0.9,2-3.4,2.9-5.4,2c-0.1,0-0.1-0.1-0.2-0.1
					c-2.1-1.5-5-1.2-6.8,0.7C411.9,243.4,403.4,252.7,401.5,275.1"/>
				<path class="st3" d="M407,276.8c0,0,7.3-29.3,24.4-30.5c0,0,10-0.1,9.2,6.8c-1.6,1.6-4.2,1.5-5.7-0.1c0-0.1-0.1-0.1-0.1-0.2
					c-1.4-2.2-4.2-3-6.6-1.8C428.2,251,416.9,256.6,407,276.8"/>
				<path class="st3" d="M390.3,298.1c-10.3-0.5-20.8,14.4-20.8,14.4c-27.9,42.1-64.9,73.4-64.9,73.4c2.4-3.4,53.4-33.8,53.4-33.8
					c5.6-3.4,11-7.2,16.1-11.2c4-3.1,7.7-6.5,11.1-10.3c2.5-2.8,4.9-5.8,7-8.9c1.5-2.1,2.9-4.3,4-6.7c0.8-1.9,1.5-3.8,2-5.8
					c0.7-2.4,1.1-4.9,1-7.3"/>
				<path class="st3" d="M412.2,291.9c-0.9,7.1-7.3,12.2-14.4,11.3c-7.1-0.9-12.2-7.3-11.3-14.4c0.9-7.1,7.3-12.2,14.4-11.3
					c0,0,0,0,0,0C408.1,278.4,413.1,284.8,412.2,291.9C412.3,291.9,412.3,291.9,412.2,291.9"/>
				<path class="st4" d="M322.5,184.8c0,0,22.2,36.8,10.1,100.5c0,0-107-95.3-28-181.2c0,0,129.5,31.1,58.4,190.8
					c0,0,62.4-69.6,38.9-149.7c-1.7-5.5-3.8-10.8-6.4-15.9c-6.8-13.7-16.6-25.7-28.8-35.1c-12.2-9.4-26.2-15.9-38.4-25.3
					c-12-9.1-22.5-20.1-31-32.6c-6.2-8.9-11-18.6-14.5-28.8c5.8,17.9,7.4,40.6,1.5,58.5c-4.7,14-14.8,25.6-21.5,38.7
					c-7.7,15.3-12.3,32.1-13.5,49.2c-1.7,23.6,3.4,45,13,66.2c10.4,22.7,24.3,43.6,41.3,61.8c12.3,13.3,26.3,25,41.5,34.9
					c0,0,41.1-98.5-29.2-169.8c0,0-31.6,46,2.6,92.9C318.6,239.9,307.4,202,322.5,184.8"/>
				<path class="st4" d="M207.8,343.6c0,0,38.5-19.1,101-2c0,0-103.6,99-182.8,13.4c0,0,41.4-126.5,194.9-42.9
					c0,0-64.4-67.8-146.1-50.8c-5.6,1.2-11.1,2.9-16.4,5.1c-14.2,5.6-27,14.5-37.3,25.9c-10.3,11.4-18,24.8-28.2,36.2
					c-10.1,11.2-21.9,20.8-35,28.3c-9.4,5.4-19.4,9.5-29.9,12.1c18.3-4.4,41.1-4.1,58.4,3.3c13.6,5.8,24.4,16.8,36.8,24.6
					c14.7,8.9,31,14.9,48,17.4c23.4,3.6,45.1,0.2,67-7.6c23.4-8.5,45.3-20.7,64.9-36.2c14.3-11.2,27.1-24.2,38.1-38.6
					c0,0-94.8-48.9-171.6,15.5c0,0,43.4,35.2,92.8,4.8C262.4,351.8,223.7,359.9,207.8,343.6"/>
				<path class="st4" d="M402.1,270.8c0,0-3.8-30,11.7-37.3c0,0,9.3-3.7,11,3c-0.9,2-3.4,2.9-5.4,2c-0.1,0-0.1-0.1-0.2-0.1
					c-2.1-1.5-5-1.2-6.8,0.7C412.4,239.1,403.9,248.4,402.1,270.8"/>
				<path class="st4" d="M407.5,272.5c0,0,7.3-29.3,24.5-30.5c0,0,10-0.1,9.2,6.8c-1.6,1.5-4.2,1.5-5.7-0.1c0,0-0.1-0.1-0.1-0.1
					c-1.4-2.2-4.2-3-6.6-1.8C428.8,246.7,417.5,252.3,407.5,272.5"/>
				<path class="st4" d="M390.8,293.8c-10.3-0.5-20.8,14.4-20.8,14.4c-27.9,42.1-64.9,73.4-64.9,73.4c2.4-3.4,53.4-33.8,53.4-33.8
					c5.6-3.4,11-7.2,16.1-11.2c4-3.1,7.7-6.5,11.1-10.3c2.5-2.8,4.9-5.8,7-8.9c1.5-2.1,2.8-4.3,4-6.7c0.8-1.9,1.5-3.8,2-5.8
					c0.7-2.4,1.1-4.9,0.9-7.4"/>
				<path class="st4" d="M412.8,287.6c-0.8,7.1-7.3,12.2-14.4,11.4s-12.2-7.3-11.4-14.4c0.8-7.1,7.3-12.2,14.4-11.4c0,0,0.1,0,0.1,0
					C408.6,274.1,413.6,280.5,412.8,287.6C412.8,287.6,412.8,287.6,412.8,287.6"/>
			</g>
		</g>
	</g>
</g>
</svg>
