<svg id="Capa_1" data-name="Capa 1" xmlns="http://www.w3.org/2000/svg" xmlns:xlink="http://www.w3.org/1999/xlink" viewBox="0 0 1025 572.57"><defs><style>.cls-1{fill:none;}.cls-2{clip-path:url(#clip-path);}.cls-3{fill:#3f8b99;}.cls-4{fill:#f5edeb;}.cls-5{fill:#f7d4d1;}</style><clipPath id="clip-path"><rect class="cls-1" x="-34.84" y="-253.94" width="1080" height="1080"/></clipPath></defs><g class="cls-2"><path class="cls-3" d="M383.72,416c-1.75.25-4.26-1.76-5.76-4.26-1.51-2.26-1.26-4.26.5-4.26,28.82-1.25,61.64-16.79,86.2-36.09,12-9.27,21.8-19.29,28.07-29.07,6.26-9.27,9-17.79,7.27-24.55a11,11,0,0,0-3.26-4.77,10.47,10.47,0,0,0-4-2.25c-15-6-43.1,0-73.43,15.53C388.48,342.09,348.39,364.9,308,419c-11.53,15.53-21.8,31.82-29.07,49.61-10,24.56-12.28,46.11-7.27,61.9,2.76,8.77,8,15.54,15.54,19.55,9.27,4.51,21.8,6,37.34,3.51,36.84-6,89.71-34.84,156.12-96.23,1-.75,3.51.25,5.51,2.25,2,2.26,2.76,4.76,1.76,5.77-66.91,61.89-120,90.71-157.63,97-16.79,2.75-30.82.75-41.6-4.76-12.28-6.27-20.8-16.54-25.06-30.08-5.26-17.29-3-40.34,7.27-65.9,7.27-18.05,18-34.59,29.57-50.37,40.6-54.38,80.94-77.44,112-93.22,31.32-16,60.89-22.31,77.93-15.29A37.46,37.46,0,0,1,498,307a27.81,27.81,0,0,1,9.78,14c2.5,8.52-.51,18.55-7.27,28.82-6.52,9.77-16.54,20.3-28.57,29.57C446.87,399,413.29,415,383.72,416"/><path class="cls-3" d="M487.21,451.1c1-.75,3.51.25,5.52,2.51s2.5,4.76,1.5,5.76a13.88,13.88,0,0,0-2,1.51c-5.27,4.76-9.53,12.53-12.28,20.29-2,6.52-3,12.54-1.76,15a7.64,7.64,0,0,0,4.76,0,19.51,19.51,0,0,0,7.52-4.76c3.51-3,6.77-7.52,9.78-13.28a52.16,52.16,0,0,0,4-10.28,35.64,35.64,0,0,1-9.78-12.78,26.88,26.88,0,0,1-2.5-12.28c.5-3.51,2-6,5-6.51a10.89,10.89,0,0,1,6.26,1.25,18.39,18.39,0,0,1,7.77,8.52,26.94,26.94,0,0,1,2.76,9,38.88,38.88,0,0,1,0,10.78c5.51,1,13.78,2,22.55-3,1.25-.75,2.51-1.75,4.51.5,1.76,2.26,1.51,4,.25,4.76-11.78,6.52-20.55,7.52-28.31,4.76A44.65,44.65,0,0,1,508,485.43c-3,5.77-6.51,10.78-10.27,14-3,2.51-5.76,4.51-8.52,5.26a12.26,12.26,0,0,1-9.77-1,18.66,18.66,0,0,1-5-4l-1.5-1.5c-4-5.77-3.76-15-1-23.81,2.75-8.27,7.52-16.54,13-21.55.75-.5,1.5-1.26,2.25-1.76m18.3,10.78a42.5,42.5,0,0,0,0-11.28,22.63,22.63,0,0,0-1.25-5.51h.25a2.07,2.07,0,0,0-1.76,0c-1.5,0-2.25,1.5-2.5,3.76a15.24,15.24,0,0,0,1.5,7.77,12.73,12.73,0,0,0,3.76,5.26"/><path class="cls-3" d="M543.85,449.35c.75-1.25,3.25-.75,5.26,1.25,2.25,2,3.26,4.76,2.5,6l-6.26,11.27c13.53-11.27,28.32-22.3,33.83-20.8h.5c7.52,2.26,8.77,7,7,13.28-.75,2.76-2.51,6-4.26,9.78-3.26,6.51-7,13.78-7,13.78,8,5.26,35.09-18.54,35.34-18.54.75-1,3.5-4.26,5.51-2,2.25,2,.75,2.51-.25,3.76,0,0-27.32,32.33-40.35,23.81-11.27-7.27-5.76-18.3-1-28.07,1-2,2-4,2.76-6-14.29,7.51-47.62,39.34-48.62,40.34-.75,1-3,.25-5-1.5-2-2.26-3.26-4.76-2.51-6Z"/><path class="cls-3" d="M612,471.9c-1,1-4,2.51-6,.5-2-2.25,3.26-6.76,4.26-7.77l18.8-22.8a59.79,59.79,0,0,1,5.76-5.51c1-1,3.51,0,5.27,2.25,2,2,3,4.76,2,5.77l-6,5.76c-5.27,6-12.28,16.79-9.53,28.32,1.51,7.27.76,13-1.25,17.29a20.5,20.5,0,0,1-4.76,5.51,17.48,17.48,0,0,1-5.76,2.76,14.35,14.35,0,0,1-9.78-1.25c-14.28-7.27-6.51-21.31-6.51-21.56.75-1.25,3-.75,5.26,1.26s3.26,4.76,2.75,6c0,.25-3.5,6.52-3,6.77a8.37,8.37,0,0,0,5,0,10,10,0,0,0,5-2.26,10.94,10.94,0,0,0,3.76-4.51c1.76-3.51,2.51-8,1.25-13.78,0-3.26-2.25-3.51,3.76-14.54Z"/><path class="cls-3" d="M685.68,469.4c-.75,1.5-3,1-5-1-2.26-2-3.51-4.76-3-6,.25,0,4.26-8.77,3.26-8.77-4.76-.25-15,6.51-22.81,15.28a56.72,56.72,0,0,0-7.51,10.28,25.69,25.69,0,0,0-3,9.77c0,2.26.5,4.26,1.75,5.52,10.53,9.27,61.9-29.32,62.15-29.32,1-.26,3.26-3.26,5-2.76,2,2.25,2.76,4.76,1.76,5.76-.25,0-54.38,46.36-71.17,31.33-5.51-5-7.77-10.53-7.52-16a24.27,24.27,0,0,1,3.26-11.53,60.69,60.69,0,0,1,7.77-10.77c8.27-9.28,19.54-16.54,25.31-16.29,21.3.75,9.77,24.56,9.77,24.56"/><path class="cls-3" d="M730,443.84c1.26-1,3.76,0,5.77,2.25s2.75,4.76,1.5,5.76c-5.51,4.77-14.53,15.54-20,26.07-3.5,7-3.25,11-.75,12.28,10.28,1.5,38.09-25.57,38.09-25.82,1-1,2.76-3,4.76-.75,2.26,2.26,1.26,3,.25,4-.25,0-41.84,45.11-52.62,26.32-3.51-6.27-1.75-14.79,2.51-23.31,5.51-10.78,14.78-22,20.54-26.81m15.54-7.27c-1,1.25-3.51.25-5.51-1.76-2-2.25-3-4.76-2-6l14-16c1-1.25,3.25-.25,5.51,1.76,2,2.25,2.76,4.76,2,6Z"/><path class="cls-3" d="M782.41,465.89a79.85,79.85,0,0,1-25.81,7.52c-17,36.58,50.62,5.51,58.39-8.52.75-1.51,3.25-3.26,5.51-1.26,2,2,2,3,1.25,4.51-7,12.28-46.11,39.35-63.4,29.57-8.52-4.76-13.78-14.78-11.78-24.56,1.26-6.26,5-12.77,10-18.54a111.17,111.17,0,0,1,16.29-14.78c7.26-5,14-8,16.79-7.52a11.11,11.11,0,0,1,6,3.76,10.78,10.78,0,0,1,3,9,21.78,21.78,0,0,1-2.51,7,33.26,33.26,0,0,1-13.78,13.78m-17.79-4a92.73,92.73,0,0,0,11.27-4.26c5.27-2.76,9.78-8,12.53-12.78.5-1,.75-1.76,1.26-2.76a57.2,57.2,0,0,0-9.78,6,97.63,97.63,0,0,0-15.28,13.78"/><path class="cls-3" d="M823,449.35c.75-1.25,3.25-.75,5.26,1.25,2.25,2,3.26,4.76,2.5,6l-6.26,11.27c13.53-11.27,28.31-22.3,33.83-20.8h.5c7.52,2.26,8.77,7,7,13.28-.75,2.76-2.51,6-4.26,9.78-3.26,6.51-7,13.78-7,13.78,8,5.26,35.08-18.54,35.33-18.54.76-1,3.51-4.26,5.52-2,2.25,2,.75,2.51-.25,3.76,0,0-27.32,32.33-40.35,23.81-11.28-7.27-5.76-18.3-1-28.07a64.08,64.08,0,0,0,2.75-6C842.3,464.38,809,496.21,808,497.21c-.75,1-3,.25-5-1.5-2-2.26-3.26-4.76-2.51-6Z"/><path class="cls-3" d="M960.83,351.11c.75-1,3.26-.5,5.26,1.76,2,2,3,4.76,2.26,5.76,0,.25-18.29,25.56-37.84,54.88h63.9c1.76,0,4.51,2,5.77,4.26,1.5,2.51,1.25,4.51-.51,4.51H924.74c-5.26,8-10.52,16.29-15.53,24.31v.25c0,1-.5,1.51-1,1.51-15.29,24.8-23.56,39.09-20.8,44.1,4.51,8.52,55.38-32.08,55.38-32.33,1-.75,2.5-1.25,4.51,1s.5,3.5-.5,4.26c-.25.25-57.14,56.38-69.42,33.83-3.76-7,7.77-31.08,23.81-57.64-.25,0,1.5-2.76,1.5-2.76.5-19-63.65-16.54-63.65-16.54-1.75,0-4.51-2-5.76-4.51-1.51-2.25-1.26-4.26.5-4.26h84.7c21-32.83,42.1-62.15,42.35-62.4m-55.38,83.2,7.52-12L881.64,421c7.52,3,19.8,8,23.81,13.28"/><path class="cls-3" d="M969.35,465.89a79.85,79.85,0,0,1-25.81,7.52c-17,36.58,50.62,5.51,58.39-8.52.75-1.51,3.25-3.26,5.51-1.26,2,2,2,3,1.25,4.51-7,12.28-46.11,39.35-63.4,29.57-8.52-4.76-13.78-14.78-11.77-24.56,1.25-6.26,5-12.77,10-18.54a111.17,111.17,0,0,1,16.29-14.78c7.26-5,14-8,16.79-7.52a11.11,11.11,0,0,1,6,3.76,10.78,10.78,0,0,1,3,9,21.54,21.54,0,0,1-2.51,7,33.2,33.2,0,0,1-13.78,13.78m-17.79-4a92.11,92.11,0,0,0,11.27-4.26c5.27-2.76,9.78-8,12.53-12.78.51-1,.76-1.76,1.26-2.76a57.2,57.2,0,0,0-9.78,6,97.63,97.63,0,0,0-15.28,13.78"/><path class="cls-3" d="M592.05,339.5c-1.12.16-2.71-1.11-3.66-2.7s-.8-2.71.32-2.71c18.3-.8,39.16-10.67,54.76-22.92,7.64-5.89,13.85-12.26,17.83-18.47,4-5.89,5.73-11.3,4.62-15.6a6.93,6.93,0,0,0-2.07-3,6.75,6.75,0,0,0-2.55-1.43c-9.55-3.82-27.38,0-46.65,9.87-19.58,10-45,24.52-70.68,58.9-7.32,9.87-13.85,20.22-18.47,31.52-6.36,15.61-7.8,29.3-4.61,39.33a20.47,20.47,0,0,0,9.87,12.41c5.89,2.87,13.85,3.82,23.72,2.23,23.4-3.82,57-22.13,99.18-61.13.63-.48,2.23.16,3.5,1.43,1.27,1.44,1.75,3,1.12,3.66-42.51,39.33-76.26,57.63-100.14,61.62-10.67,1.75-19.58.47-26.43-3a31.32,31.32,0,0,1-15.92-19.1c-3.34-11-1.91-25.63,4.62-41.87,4.62-11.46,11.46-22,18.79-32,25.79-34.55,51.42-49.19,71.16-59.22,19.9-10.19,38.68-14.17,49.51-9.71a24,24,0,0,1,4.77,2.7,17.55,17.55,0,0,1,6.21,8.92c1.59,5.41-.32,11.78-4.62,18.31a83.12,83.12,0,0,1-18.14,18.78c-15.92,12.42-37.26,22.61-56,23.24"/><path class="cls-3" d="M678.65,366.89c.64,1.59.16,2.54-1.11,2.22a6.16,6.16,0,0,1-3.51-3.18c-3.18-3-11,.64-13.84,3a31,31,0,0,0-11,17.82c5.57-1.59,20.06-18.46,20.06-18.46.64-.64,2.07-.16,3.5,1.27,1.12,1.27,1.75,2.71,1.27,3.5-.31.8-2.22,4.94-1.27,9.4.64,3.82,21.33-13.53,21.65-13.69a2.09,2.09,0,0,1,3.19-.16c1.27,1.43,1.11,2.7.47,3.34-10.5,9.39-16.71,15-21,17.19-7.32,3.82-12.9,1.6-12.74-6.21-5.73,5.42-11.62,10.35-15.12,8.76a9.27,9.27,0,0,1-3.18-2.39,8.69,8.69,0,0,1-1.91-6.68,18.36,18.36,0,0,1,1.75-6,37.7,37.7,0,0,1,9.87-12.74c7.16-5.89,20.22-6.21,22.92,3"/><path class="cls-3" d="M699,356.54c.32-.8,1.91-.32,3.18.95,1.43,1.28,2.23,2.87,1.75,3.82l-2.86,4.94c4.93-4.78,9.71-8.76,12.73-9.87,9.87-3.35,8.28,7.48,5.1,17.19a6.73,6.73,0,0,1,1.59-.79,10.09,10.09,0,0,1,3.82-1.12c2.55-.16,4.62,1.12,6,4.14.8,1.75.8,4.46-.48,8.12-.16.32,17-13.85,17.2-13.85.63-.64,2.07-2.39,3.34-1,1.43,1.28,1.27,2.23.64,2.87-.16.16-38.21,40.28-26.27,7.48.16-.63.32-1.11.48-1.75l-.64.32c-4.3,2.23-9.87,6.85-11,8.75v.16c-.47,1-1.91.64-3.34-.63s-2.07-3-1.75-3.82c0-.16,9.71-20.86,9.23-20.7-8.59,3-31.52,31-31.68,31.2-.47.64-1.91.16-3.18-.95-1.27-1.27-2.07-3-1.59-3.82Z"/><path class="cls-3" d="M758.09,357.17c.8-.63,2.39,0,3.66,1.44s1.75,3,1,3.66A64.52,64.52,0,0,0,750,378.83c-2.23,4.45-2.07,7-.48,7.8,6.53.95,24.2-16.24,24.2-16.4.64-.64,1.75-1.91,3-.48s.79,1.91.16,2.55c-.16,0-26.59,28.65-33.44,16.71-2.23-4-1.11-9.39,1.6-14.8,3.5-6.85,9.39-14,13.05-17m9.87-4.61c-.64.79-2.23.16-3.5-1.12s-1.91-3-1.28-3.82l8.92-10.19c.64-.79,2.07-.16,3.5,1.12,1.28,1.43,1.75,3,1.28,3.82Z"/><path class="cls-3" d="M778.79,360.68c.47-.8,2.06-.48,3.34.79s2.07,3,1.59,3.82l-4,7.17c8.6-7.17,18-14.17,21.49-13.22h.32c4.78,1.44,5.57,4.46,4.46,8.44a46,46,0,0,1-2.71,6.21c-2.07,4.14-4.46,8.76-4.46,8.76,5.1,3.34,22.29-11.79,22.45-11.79.48-.63,2.23-2.7,3.5-1.27,1.44,1.27.48,1.59-.16,2.39,0,0-17.35,20.54-25.63,15.12-7.16-4.61-3.66-11.62-.63-17.83a41.9,41.9,0,0,0,1.75-3.82c-9.08,4.78-30.25,25-30.89,25.63-.48.64-1.91.16-3.18-.95-1.27-1.43-2.07-3-1.59-3.82Z"/><path class="cls-3" d="M848,366.89c.63,1.59.16,2.54-1.12,2.22a6.17,6.17,0,0,1-3.5-3.18c-3.19-3-11,.64-13.85,3a31,31,0,0,0-11,17.82c5.58-1.59,20.06-18.46,20.06-18.46.64-.64,2.07-.16,3.51,1.27,1.11,1.27,1.75,2.71,1.27,3.5-.32.8-2.23,4.94-1.27,9.4.63,3.82,21.33-13.53,21.65-13.69a2.08,2.08,0,0,1,3.18-.16c1.27,1.43,1.11,2.7.48,3.34-10.51,9.39-16.72,15-21,17.19-7.32,3.82-12.89,1.6-12.73-6.21-5.73,5.42-11.62,10.35-15.13,8.76a9.27,9.27,0,0,1-3.18-2.39,8.73,8.73,0,0,1-1.91-6.68,18.6,18.6,0,0,1,1.75-6,37.7,37.7,0,0,1,9.87-12.74c7.17-5.89,20.22-6.21,22.93,3"/><path class="cls-3" d="M872.87,352.72c.48-.8,2.07-.32,3.34.95,1.43,1.28,2.07,3,1.59,3.82l-5.89,9.4c5.58-2.71,13.22-5.26,16.4-1.28,1.43,1.59,1,5.25,3,5.42a38.5,38.5,0,0,0,11.78-1.76c1-.31,1.91-1.11,2.86.32,1.12,1.59.48,2.07-.48,2.23-4.61,1.43-12.25,3-15.6,2.71-4.14-.32-5.41-1.44-8.91-5.57-2.39-2.87-16.56,9.71-16.56,9.71-.32.16-8.6,14.16-9.39,15.6-.48.79-2.07.32-3.34-1-1.44-1.27-2.07-3-1.6-3.82Z"/><path class="cls-3" d="M48.44,166.37c-.28.81-1.5.68-2.73-.41s-1.91-2.46-1.64-3.28c8-27.56,89.11-45.57,88.83-16,0,8.73-8.18,22-18,38.07-1.36,2.18-2.73,4.5-4.09,6.82-7.23,11.73-11,22.65-11.74,31.11a20.86,20.86,0,0,0,1.37,10.65c2.32,4.77,8.59,4.36,13,3.27,20.2-5.19,56.22-49.12,70.55-66.59a212.71,212.71,0,0,1,23.33-27.29c.55-.55,1.78-.14,2.87,1s1.77,2.6,1.22,3.28c-6.54,9.14-14.32,19.24-22.51,29.2-19.1,26.61-41.35,63.73-28.66,77.23,1.1,1.1,1.64,2.6,1.1,3.14s-1.91,0-3-1.09c-10.37-11.05-3.41-32.61,8.19-53.9-11.46,12.15-34.93,35.89-49.8,39.71-8.46,2.18-16.11-.27-20.06-8.6-1.78-3.54-2.46-8.05-2-13.23.82-8.74,4.64-19.79,12-31.93,1.36-2.32,2.73-4.51,4.09-6.83,9.69-15.69,17.74-28.79,17.88-37,.13-16.92-72.19.55-80.1,22.66"/><path class="cls-3" d="M188.44,201.57c.41-.68,1.78-.41,2.87.68s1.77,2.6,1.36,3.28l-3.41,6.14c7.37-6.14,15.42-12.15,18.42-11.33H208c4.1,1.23,4.78,3.82,3.82,7.24a39,39,0,0,1-2.31,5.32c-1.78,3.54-3.83,7.5-3.83,7.5,4.37,2.87,19.11-10.1,19.24-10.1.41-.54,1.92-2.32,3-1.09s.41,1.37-.14,2c0,0-14.87,17.6-22,13-6.14-4-3.14-10-.54-15.28.54-1.09,1.09-2.18,1.5-3.27-7.78,4.09-25.93,21.42-26.48,22s-1.63.14-2.73-.81c-1.09-1.23-1.77-2.6-1.36-3.28Z"/><path class="cls-4" d="M317.44,197.32s22.72,37.71,10.38,103c0,0-109.7-97.7-28.7-185.65,0,0,132.68,31.88,59.88,195.53,0,0,63.93-71.32,39.89-153.4a100,100,0,0,0-6.55-16.28,102.09,102.09,0,0,0-29.47-35.92C350.39,95,336,88.27,323.52,78.73a143.78,143.78,0,0,1-31.73-33.44,118.54,118.54,0,0,1-14.87-29.51c6,18.29,7.61,41.62,1.49,59.93C273.63,90,263.24,102,256.35,115.32a132.36,132.36,0,0,0-13.83,50.44c-1.76,24.15,3.54,46.12,13.33,67.81a237.94,237.94,0,0,0,42.3,63.29,220.34,220.34,0,0,0,42.56,35.74s42.1-100.88-29.92-174c0,0-32.39,47.19,2.72,95.16,0,0-11.48-38.82,3.93-56.45"/><path class="cls-4" d="M199.91,355.46s39.41-19.61,103.49-2.07c0,0-106.2,101.49-187.35,13.68,0,0,42.43-129.68,199.71-44,0,0-65.95-69.44-149.7-52.08a99.67,99.67,0,0,0-16.75,5.22,102.08,102.08,0,0,0-38.18,26.49c-10.56,11.67-18.43,25.44-28.95,37.15a143.73,143.73,0,0,1-35.87,28.94,118.94,118.94,0,0,1-30.62,12.45c18.72-4.5,42.1-4.25,59.86,3.32,13.88,5.92,25,17.24,37.71,25.17a132.33,132.33,0,0,0,49.15,17.85c23.94,3.69,46.27.18,68.67-7.84a238,238,0,0,0,66.49-37.08,220.79,220.79,0,0,0,39.05-39.54S239.44,293.07,160.78,359c0,0,44.44,36.09,95.07,4.93,0,0-39.61,8.33-55.94-8.44"/><path class="cls-4" d="M394.46,280.89s-3.91-30.73,12-38.23c0,0,9.5-3.83,11.3,3.05a4.16,4.16,0,0,1-5.72,1.92,5.26,5.26,0,0,0-6.95.73s-8.68,9.56-10.61,32.53"/><path class="cls-4" d="M400.06,282.65s7.53-30.06,25-31.27c0,0,10.27-.12,9.42,6.94a4.17,4.17,0,0,1-6-.28,5.26,5.26,0,0,0-6.73-1.86s-11.56,5.76-21.7,26.47"/><path class="cls-4" d="M383,304.46c-10.58-.52-21.33,14.8-21.33,14.8-28.53,43.16-66.5,75.21-66.5,75.21,2.46-3.44,54.73-34.68,54.73-34.68a177.27,177.27,0,0,0,16.51-11.52,86.38,86.38,0,0,0,11.41-10.55A94,94,0,0,0,385,328.6a41.61,41.61,0,0,0,4.05-6.86,37.87,37.87,0,0,0,2-5.92,22.23,22.23,0,0,0,1-7.53"/><path class="cls-4" d="M405.42,298.14a13.27,13.27,0,1,1-11.57-14.78,13.27,13.27,0,0,1,11.57,14.78"/><path class="cls-5" d="M313.43,188.36s22.71,37.71,10.38,103c0,0-109.7-97.7-28.7-185.65,0,0,132.68,31.88,59.88,195.53,0,0,63.93-71.32,39.89-153.4a99.93,99.93,0,0,0-6.54-16.28,102.12,102.12,0,0,0-29.48-35.92C346.38,86,332,79.31,319.51,69.77a143.77,143.77,0,0,1-31.73-33.44A118.57,118.57,0,0,1,272.9,6.82c6,18.29,7.62,41.62,1.51,59.93-4.79,14.32-15.18,26.28-22.06,39.62a132.27,132.27,0,0,0-13.84,50.42c-1.76,24.16,3.54,46.13,13.33,67.82a238.1,238.1,0,0,0,42.3,63.29,220.34,220.34,0,0,0,42.56,35.74s42.1-100.88-29.92-174c0,0-32.39,47.19,2.73,95.16,0,0-11.49-38.82,3.92-56.45"/><path class="cls-5" d="M195.89,351.05S235.31,331.44,299.4,349c0,0-106.21,101.49-187.36,13.68,0,0,42.44-129.69,199.71-44,0,0-65.95-69.44-149.7-52.08a99.38,99.38,0,0,0-16.75,5.22,101.88,101.88,0,0,0-38.18,26.49C96.55,310,88.69,323.75,78.17,335.46A144,144,0,0,1,42.3,364.4a119.08,119.08,0,0,1-30.62,12.45c18.72-4.5,42.1-4.25,59.86,3.32,13.88,5.92,25,17.24,37.71,25.18a132.36,132.36,0,0,0,49.15,17.83c23.94,3.7,46.27.18,68.67-7.83a238.18,238.18,0,0,0,66.5-37.08,221.07,221.07,0,0,0,39-39.54s-97.17-50.08-175.84,15.83c0,0,44.44,36.08,95.07,4.93,0,0-39.61,8.33-56-8.44"/><path class="cls-5" d="M395,276.47s-3.91-30.72,12-38.22c0,0,9.5-3.83,11.3,3.05a4.16,4.16,0,0,1-5.72,1.92,5.26,5.26,0,0,0-6.95.73s-8.68,9.56-10.61,32.52"/><path class="cls-5" d="M400.61,278.24s7.52-30.06,25-31.27c0,0,10.27-.12,9.43,6.93a4.16,4.16,0,0,1-6-.27,5.28,5.28,0,0,0-6.74-1.86s-11.56,5.76-21.69,26.47"/><path class="cls-5" d="M383.48,300.05c-10.57-.52-21.32,14.8-21.32,14.8-28.54,43.16-66.5,75.21-66.5,75.21,2.45-3.44,54.73-34.68,54.73-34.68a176,176,0,0,0,16.51-11.52,86.41,86.41,0,0,0,11.41-10.56,92.72,92.72,0,0,0,7.18-9.11,43.43,43.43,0,0,0,4.06-6.86,41.22,41.22,0,0,0,2-5.92,22.23,22.23,0,0,0,1-7.53"/><path class="cls-5" d="M406,293.73A13.27,13.27,0,1,1,394.4,279,13.27,13.27,0,0,1,406,293.73"/><rect class="cls-1" x="-34.84" y="-253.94" width="1080" height="1080"/></g></svg>